<svg xmlns="http://www.w3.org/2000/svg" xmlns:xlink="http://www.w3.org/1999/xlink" width="48px" height="px" viewBox="0 0 48 48" version="1.1">
<g id="surface1">
<path style=" stroke:none;fill-rule:nonzero;fill:#0285ff;fill-opacity:1;" d="M 24 21.601562 C 21.824219 17.371094 15.90625 9.492188 10.402344 5.609375 C 5.132812 1.886719 3.121094 2.53125 1.804688 3.128906 C 0.277344 3.816406 0 6.160156 0 7.535156 C 0 8.914062 0.757812 18.835938 1.246094 20.492188 C 2.878906 25.964844 8.675781 27.8125 14.015625 27.222656 C 14.285156 27.183594 14.5625 27.144531 14.84375 27.109375 C 14.566406 27.152344 14.292969 27.191406 14.015625 27.222656 C 6.191406 28.382812 -0.761719 31.230469 8.355469 41.378906 C 18.378906 51.757812 22.09375 39.152344 24 32.761719 C 25.90625 39.152344 28.101562 51.304688 39.464844 41.378906 C 48 32.761719 41.808594 28.382812 33.984375 27.222656 C 33.707031 27.191406 33.433594 27.152344 33.15625 27.109375 C 33.4375 27.144531 33.714844 27.183594 33.984375 27.222656 C 39.324219 27.816406 45.121094 25.964844 46.753906 20.492188 C 47.242188 18.839844 48 8.914062 48 7.539062 C 48 6.15625 47.722656 3.816406 46.195312 3.125 C 44.878906 2.53125 42.867188 1.886719 37.597656 5.605469 C 32.09375 9.496094 26.175781 17.375 24 21.601562 Z M 24 21.601562 "/>
</g>
</svg>
