<svg xmlns="http://www.w3.org/2000/svg" viewBox="0 0 24 24" height="48" width="48"><path fill="#ff4500" d="M12 0a12 12 0 100 24 12 12 0 100-24zm5.01 4.744c.688.0 1.25.561 1.25 1.249a1.25 1.25.0 01-2.498.056l-2.597-.547-.8 3.747c1.824.07 3.48.632 4.674 1.488.308-.309.73-.491 1.207-.491.968.0 1.754.786 1.754 1.754.0.716-.435 1.333-1.01 1.614a3.111 3.111.0 01.042.52c0 2.694-3.13 4.87-7.004 4.87s-7.004-2.176-7.004-4.87a3.29 3.29.0 01.043-.534A1.748 1.748.0 014.028 12c0-.968.786-1.754 1.754-1.754.463.0.898.196 1.207.49 1.207-.883 2.878-1.43 4.744-1.487l.885-4.182a.342.342.0 01.14-.197.35.35.0 01.238-.042l2.906.617a1.214 1.214.0 011.108-.701zM9.25 12C8.561 12 8 12.562 8 13.25a1.25 1.25.0 001.25 1.248 1.25 1.25.0 001.248-1.249A1.25 1.25.0 009.249 12zm5.5.0a1.25 1.25.0 00-1.248 1.25 1.25 1.25.0 001.249 1.248A1.25 1.25.0 0016 13.249c0-.687-.562-1.249-1.25-1.249zm-5.466 3.99a.327.327.0 00-.231.094.33.33.0 000 .463c.842.842 2.484.913 2.961.913s2.105-.056 2.961-.913a.361.361.0 00.029-.463.33.33.0 00-.464.0c-.547.533-1.684.73-2.512.73s-1.979-.196-2.512-.73a.326.326.0 00-.232-.095z"/></svg>
