<svg xmlns="http://www.w3.org/2000/svg" xmlns:xlink="http://www.w3.org/1999/xlink" width="48px" height="px" viewBox="0 0 48 48" version="1.1">
<g id="surface1">
<path style=" stroke:none;fill-rule:nonzero;fill:#ffffff;fill-opacity:1;" d="M 23.957031 0 C 11.355469 0 1.023438 9.71875 0.0429688 22.074219 L 12.90625 27.390625 C 13.996094 26.648438 15.3125 26.210938 16.730469 26.210938 C 16.859375 26.210938 16.980469 26.21875 17.109375 26.222656 L 22.828125 17.9375 L 22.828125 17.820312 C 22.828125 12.828125 26.886719 8.773438 31.878906 8.773438 C 36.867188 8.773438 40.925781 12.835938 40.925781 17.824219 C 40.925781 22.816406 36.867188 26.875 31.878906 26.875 L 31.667969 26.875 L 23.515625 32.699219 C 23.515625 32.800781 23.523438 32.90625 23.523438 33.015625 C 23.523438 36.765625 20.492188 39.808594 16.742188 39.808594 C 13.472656 39.808594 10.710938 37.460938 10.082031 34.355469 L 0.871094 30.539062 C 3.722656 40.613281 12.972656 48 23.957031 48 C 37.210938 48 47.957031 37.253906 47.957031 24 C 47.957031 10.746094 37.210938 0 23.957031 0 Z M 15.078125 36.421875 L 12.132812 35.199219 C 12.65625 36.285156 13.5625 37.199219 14.761719 37.699219 C 17.355469 38.777344 20.347656 37.546875 21.425781 34.949219 C 21.953125 33.691406 21.953125 32.3125 21.4375 31.050781 C 20.917969 29.792969 19.9375 28.808594 18.683594 28.285156 C 17.433594 27.765625 16.101562 27.789062 14.925781 28.226562 L 17.972656 29.484375 C 19.882812 30.285156 20.789062 32.484375 19.988281 34.394531 C 19.195312 36.308594 16.996094 37.214844 15.082031 36.421875 Z M 37.910156 17.8125 C 37.910156 14.488281 35.203125 11.785156 31.878906 11.785156 C 28.550781 11.785156 25.851562 14.488281 25.851562 17.8125 C 25.851562 21.144531 28.550781 23.84375 31.878906 23.84375 C 35.207031 23.84375 37.910156 21.144531 37.910156 17.8125 Z M 27.363281 17.804688 C 27.363281 15.300781 29.390625 13.273438 31.894531 13.273438 C 34.390625 13.273438 36.425781 15.300781 36.425781 17.804688 C 36.425781 20.304688 34.390625 22.335938 31.894531 22.335938 C 29.386719 22.335938 27.363281 20.304688 27.363281 17.804688 Z M 27.363281 17.804688 "/>
</g>
</svg>
