<svg xmlns="http://www.w3.org/2000/svg" xmlns:xlink="http://www.w3.org/1999/xlink" width="48px" height="48px" viewBox="0 0 48 48" version="1.1">
<g id="surface1">
<path style=" stroke:none;fill-rule:nonzero;fill:#81b64c;fill-opacity:1;" d="M 24 0 C 21.949219 -0.0117188 19.980469 0.789062 18.527344 2.234375 C 17.070312 3.679688 16.253906 5.640625 16.25 7.691406 C 16.25 10.171875 17.445312 12.496094 19.460938 13.9375 L 13.878906 17.636719 C 13.878906 18.882812 14.167969 19.867188 14.746094 20.9375 L 19.660156 20.9375 C 19.632812 21.425781 19.632812 22.035156 19.632812 22.785156 C 19.632812 22.835938 19.636719 22.882812 19.644531 22.929688 C 19.515625 25.632812 18.628906 29.871094 12.402344 34.613281 C 10.773438 35.863281 9.558594 37.601562 8.792969 39.679688 C 8.179688 41.472656 7.914062 43.171875 7.921875 44.878906 C 7.921875 45.078125 8.355469 48 23.996094 48 C 39.640625 48 40.074219 45.078125 40.074219 44.878906 C 40.074219 40.425781 38.425781 36.78125 35.59375 34.613281 C 27.527344 28.453125 28.421875 23.132812 28.304688 20.9375 L 33.222656 20.9375 C 33.800781 19.867188 34.089844 18.882812 34.089844 17.636719 L 28.511719 13.964844 C 30.519531 12.519531 31.710938 10.195312 31.71875 7.71875 C 31.714844 4.570312 29.808594 1.738281 26.890625 0.550781 C 26.882812 0.546875 26.871094 0.558594 26.859375 0.558594 C 25.953125 0.1875 24.980469 -0.00390625 24 0 Z M 24 0 "/>
</g>
</svg>
